<?xml version="1.0" encoding="utf-8"?>
<!-- Generator: Adobe Illustrator 26.5.0, SVG Export Plug-In . SVG Version: 6.00 Build 0)  -->
<svg version="1.1" id="Layer_1" xmlns="http://www.w3.org/2000/svg" xmlns:xlink="http://www.w3.org/1999/xlink" x="0px" y="0px"
	 viewBox="0 0 200 46" style="enable-background:new 0 0 200 46;" xml:space="preserve">
<style type="text/css">
	.st0{fill:#FFFFFF;}
	.st1{clip-path:url(#SVGID_00000140719485333426058020000012076816249117134254_);}
</style>
<g>
	<path class="st0" d="M72.7,41.7l-0.4,1.5c-1.2,0.3-2.2,0.4-3,0.4c-0.7,0-1.9-0.1-3.6-0.2c-1.3-0.1-2.4-0.2-3.4-0.2
		c-1.7,0-3.5,0.2-5.4,0.5l0.4-1.4c1.8-0.2,3-0.5,3.8-1.1c0.6-0.4,1.1-1.1,1.5-2.1c0.4-1,1.3-4.3,2.8-10.1l3.3-13.9l0.2-0.7
		c-1-0.1-1.8-0.1-2.3-0.1c-3.2,0-5.8,0.3-7.7,1c-1.9,0.7-3.3,1.7-4.3,3c-1,1.3-1.4,2.8-1.4,4.3c0,0.5,0.1,1,0.3,1.5
		c0.1,0.3,0.5,0.8,1.1,1.5c0.6,0.6,0.9,1.2,0.9,1.8c0,0.5-0.2,0.9-0.5,1.2c-0.3,0.3-0.8,0.5-1.3,0.5c-0.7,0-1.3-0.3-1.8-1
		c-0.7-1-1-2.3-1-3.9c0-2.1,0.7-4.2,2-6.2c1.3-2,3.1-3.6,5.4-4.7c2.3-1.1,5.1-1.6,8.4-1.6c1.6,0,4.1,0.2,7.5,0.7
		c2.4,0.3,4.2,0.5,5.3,0.5s1.9-0.2,2.3-0.5s0.7-0.9,0.7-1.5c0-0.1,0-0.4-0.1-0.7c-0.1-0.3-0.1-0.5-0.1-0.7c0-0.5,0.2-0.9,0.5-1.2
		c0.3-0.3,0.7-0.5,1.1-0.5c0.5,0,1,0.2,1.3,0.6c0.3,0.4,0.5,0.9,0.5,1.5c0,1.3-0.7,2.5-2.1,3.4c-1.4,1-3.8,1.4-7.1,1.4
		c-1.2,0-2.4-0.1-3.8-0.2c-0.2,0.6-0.7,2.8-1.7,6.4l-2.3,9l-1.4,5.5l-1.4,6.3c1.2,0.1,2.1,0.2,2.9,0.2C70.3,42.1,71.5,42,72.7,41.7z
		"/>
	<path class="st0" d="M83,43.2h-3.9l1.8-7c0.9-3.5,1.7-6.7,2.3-9.8c0.2-0.8,0.2-1.2,0.2-1.4c0-0.4-0.2-0.6-0.6-0.6
		c-0.3,0-0.7,0.2-1.2,0.5c-0.5,0.4-1.5,1.2-2.9,2.7L78,26.5c1.7-1.8,3.3-3.1,5-4c1.7-0.9,2.9-1.3,3.8-1.3c0.3,0,0.6,0.1,0.7,0.2
		c0.2,0.1,0.3,0.3,0.3,0.6c0,0.2-0.1,0.8-0.3,1.8l-1.1,4.7c1.8-2.8,3.8-5.2,6-7.1c1.1-0.9,2-1.4,2.7-1.4c0.5,0,1,0.2,1.3,0.5
		c0.3,0.3,0.5,0.7,0.5,1.2c0,0.5-0.2,0.9-0.5,1.2c-0.3,0.3-1.2,0.7-2.5,1.2c-1.3,0.4-2.3,1-3.1,1.6c-0.8,0.6-1.7,1.5-2.7,2.8
		c-1,1.3-1.6,2.3-2,3.3c-0.4,0.9-1,3.1-1.8,6.5L83,43.2z"/>
	<path class="st0" d="M107.9,36.6l0.9,1.1c-4.3,4.1-7.9,6.1-11,6.1c-1.2,0-2.2-0.4-2.8-1.3s-1-2.2-1-4c0-3.7,1.1-7.4,3.4-11.1
		c2.5-4.2,5.6-6.3,9.1-6.3c1.2,0,2.2,0.3,2.8,0.9s1,1.5,1,2.5c0,1.1-0.4,2.2-1.2,3.3s-2.2,2.2-4.2,3.4c-1,0.6-3.2,1.6-6.5,3.1
		c-0.2,0.9-0.2,1.8-0.2,2.7c0,1.2,0.2,2.1,0.6,2.6s1,0.7,1.7,0.7c0.7,0,1.5-0.2,2.4-0.6C104,39.4,105.7,38.3,107.9,36.6z M98.8,32.8
		c2.8-1.3,4.9-2.6,6.3-4.1c1-1,1.4-2,1.4-3c0-0.7-0.2-1.3-0.6-1.8c-0.4-0.4-0.9-0.7-1.5-0.7c-0.6,0-1.3,0.2-1.9,0.7
		c-0.8,0.6-1.5,1.6-2.1,2.9C99.6,28.9,99.1,30.8,98.8,32.8z"/>
	<path class="st0" d="M113.1,27.2l-0.8-1c1.7-1.7,3.4-3,4.9-3.8c1.6-0.8,2.8-1.2,3.7-1.2c0.4,0,0.6,0.1,0.8,0.2
		c0.2,0.2,0.3,0.4,0.3,0.7c0,0.3-0.1,1-0.4,2c-0.4,1.5-0.7,2.6-0.8,3.5c4.2-4.3,7.4-6.4,9.6-6.4c0.6,0,1,0.2,1.3,0.5
		c0.3,0.3,0.4,0.8,0.4,1.5c0,0.7-0.3,2-0.8,3.7c2-2.1,3.7-3.5,5.2-4.4c1.5-0.9,2.6-1.3,3.4-1.3c0.7,0,1.3,0.2,1.7,0.6
		c0.4,0.4,0.6,1.1,0.6,1.9c0,0.5-0.1,1.1-0.3,1.9s-0.8,2.9-1.9,6.5c-1.4,4.5-2.1,7.2-2.1,8.1c0,0.6,0.2,0.9,0.7,0.9
		c0.3,0,0.7-0.1,1-0.3c1-0.7,2.1-1.6,3.2-2.7l0.9,0.9c-0.4,0.3-1.1,0.9-2.1,1.8c-1.4,1.3-2.4,2-2.9,2.4c-1,0.6-1.9,0.9-2.6,0.9
		c-0.5,0-1-0.3-1.4-0.8s-0.6-1.2-0.6-2.1c0-0.8,0.1-1.8,0.4-2.9c0.2-1.1,1-3.6,2.1-7.6c0.9-2.9,1.3-4.7,1.3-5.4
		c0-0.6-0.3-0.9-0.8-0.9c-0.4,0-1,0.2-1.8,0.7c-1.5,0.9-2.8,2-3.8,3.3c-0.7,0.9-1.3,2.3-1.8,4.3c-1.2,4.3-2,7.8-2.6,10.5h-3.7
		l3.9-16c0.3-1.2,0.4-1.8,0.4-2c0-0.3-0.1-0.5-0.2-0.6c-0.1-0.1-0.3-0.2-0.6-0.2c-0.5,0-1.2,0.4-2.2,1.1c-1.7,1.2-3,2.4-3.7,3.6
		s-1.4,2.9-1.9,5.3l-2,8.8h-3.8l3-12.5c0.9-3.6,1.3-5.6,1.3-5.9c0-0.4-0.2-0.6-0.5-0.6C116.6,24.2,115.2,25.2,113.1,27.2z"/>
	<path class="st0" d="M158.6,21.2c1.7,0,3.1,0.7,4.3,2c1.1,1.4,1.7,3.2,1.7,5.7c0,3.9-1.4,7.3-4.1,10.4c-2.7,3.1-5.6,4.6-8.6,4.6
		c-1.9,0-3.4-0.6-4.5-1.8c-1.1-1.2-1.7-2.9-1.7-5c0-3.7,1-7,3.1-10.1C151.4,23.1,154.6,21.2,158.6,21.2z M156.3,23.1
		c-1.5,0-2.9,1.1-4.3,3.2s-2.1,5-2.1,8.8c0,2.3,0.4,4.1,1.3,5.4c0.6,1,1.5,1.4,2.5,1.4c1.5,0,2.8-0.9,4-2.7c1.5-2.4,2.3-5.3,2.3-8.8
		c0-2.6-0.4-4.5-1.1-5.6C158.3,23.7,157.4,23.1,156.3,23.1z"/>
	<path class="st0" d="M177.9,36.9l0.9,0.9c-1.4,1.5-3,2.9-4.8,4.2s-3.4,1.9-4.6,1.9c-0.5,0-1-0.2-1.3-0.6s-0.5-1-0.5-1.7
		c0-1.4,0.5-4.3,1.6-8.7l2.8-11.5c1-4.1,1.9-6.9,2.6-8.3c1.1-2.1,2.6-3.8,4.6-5c2-1.2,4.1-1.8,6.3-1.8c0.7,0,1.3,0.2,1.8,0.5
		c0.4,0.4,0.6,0.8,0.6,1.3c0,0.6-0.2,1-0.6,1.4c-0.4,0.4-1,0.5-1.8,0.5c-0.5,0-1.3-0.1-2.2-0.3c-0.8-0.1-1.6-0.2-2.3-0.2
		s-1.3,0.1-1.6,0.4c-0.5,0.4-1,1.3-1.4,2.6c-0.4,1.3-1.1,4-2,7.9l-2.6,11c-1.3,5.5-1.9,8.4-1.9,8.6c0,0.6,0.2,0.8,0.6,0.8
		c0.4,0,0.9-0.2,1.7-0.7C175,39.4,176.4,38.3,177.9,36.9z"/>
	<path class="st0" d="M192.8,21.2c1.7,0,3.1,0.7,4.3,2c1.1,1.4,1.7,3.2,1.7,5.7c0,3.9-1.4,7.3-4.1,10.4c-2.7,3.1-5.6,4.6-8.6,4.6
		c-1.9,0-3.4-0.6-4.5-1.8c-1.1-1.2-1.7-2.9-1.7-5c0-3.7,1-7,3.1-10.1C185.6,23.1,188.9,21.2,192.8,21.2z M190.6,23.1
		c-1.5,0-2.9,1.1-4.3,3.2s-2.1,5-2.1,8.8c0,2.3,0.4,4.1,1.3,5.4c0.6,1,1.5,1.4,2.5,1.4c1.5,0,2.8-0.9,4-2.7c1.5-2.4,2.3-5.3,2.3-8.8
		c0-2.6-0.4-4.5-1.1-5.6C192.5,23.7,191.6,23.1,190.6,23.1z"/>
</g>
<g>
	<g>
		<g>
			<defs>
				<path id="SVGID_1_" d="M37.9,43c0.4-0.4,2.1-2.3,0.8-11.7c-1.3-9.5-5.5-17.6-8.6-21.6S23,4.9,17.3,6.7C15.2,7.4,12,8.9,7.9,13
					s-5.6,7.3-6.3,9.4c-1.8,5.6-1.1,9.7,2.9,12.8s12.1,7.3,21.6,8.6S37.5,43.4,37.9,43L37.9,43z"/>
			</defs>
			<clipPath id="SVGID_00000098207436829792646870000010207318983803318708_">
				<use xlink:href="#SVGID_1_"  style="overflow:visible;"/>
			</clipPath>
			<g style="clip-path:url(#SVGID_00000098207436829792646870000010207318983803318708_);">
				<g>
					<defs>
						<rect id="SVGID_00000016756908232950341080000009161853808352801976_" x="-4.3" y="0.8" width="48.5" height="48.5"/>
					</defs>
					<clipPath id="SVGID_00000148651839514926221190000014010846497062347953_">
						<use xlink:href="#SVGID_00000016756908232950341080000009161853808352801976_"  style="overflow:visible;"/>
					</clipPath>
					<g style="clip-path:url(#SVGID_00000148651839514926221190000014010846497062347953_);">
						
							<image style="overflow:visible;" width="102" height="102" xlink:href="7CE2CFD9.jpg"  transform="matrix(0.48 0 0 0.48 -4.7089 0.3593)">
						</image>
					</g>
				</g>
			</g>
		</g>
	</g>
	<g>
		<g>
			<g>
				
					<rect x="-1.6" y="26" transform="matrix(-0.7071 -0.7071 0.7071 -0.7071 4.4821 55.2994)" class="st0" width="30.5" height="1.4"/>
				
					<rect x="1.1" y="23.4" transform="matrix(-0.7071 -0.7071 0.7071 -0.7071 10.7991 52.6828)" class="st0" width="30.5" height="1.4"/>
				
					<rect x="3.7" y="20.8" transform="matrix(-0.7071 -0.7071 0.7071 -0.7071 17.116 50.0663)" class="st0" width="30.5" height="1.4"/>
				
					<rect x="6.3" y="18.2" transform="matrix(-0.7071 -0.7071 0.7071 -0.7071 23.4329 47.4497)" class="st0" width="30.5" height="1.4"/>
			</g>
			
				<rect x="21.4" y="33.3" transform="matrix(0.7071 -0.7071 0.7071 0.7071 -15.6769 30.5249)" class="st0" width="15.3" height="1.7"/>
		</g>
		<circle class="st0" cx="20.2" cy="25.4" r="8.7"/>
	</g>
</g>
</svg>
